<svg width="126" height="111" viewBox="0 0 126 111" fill="none" xmlns="http://www.w3.org/2000/svg">
<rect opacity="0.11" x="9.90991" width="107" height="107" rx="53.5" fill="#707070"/>
<g clip-path="url(#clip0_19_1405)">
<path d="M53.8157 27.735C53.8157 24.7544 53.8481 21.7752 53.8002 18.7961C53.7817 17.7433 54.086 17.0384 55.0482 16.5096C57.5195 15.1507 59.9491 13.7269 62.3786 12.286C63.0428 11.8949 63.6035 11.9088 64.2676 12.2999C66.7389 13.7593 69.2225 15.2094 71.7401 16.5916C72.7889 17.1682 72.9619 18.0154 72.9588 19.076C72.9387 24.8255 72.9495 30.5765 72.9588 36.326C72.9588 38.3265 73.0777 38.3961 74.8122 37.399C79.7424 34.5513 84.688 31.7329 89.5781 28.8203C90.8137 28.0813 91.7775 28.0597 93.0023 28.8528C95.1045 30.2132 97.2962 31.4423 99.508 32.6188C100.52 33.163 100.896 33.8664 100.88 34.9888C100.829 37.5489 100.816 40.1122 100.88 42.6723C100.912 43.8751 100.45 44.5723 99.4153 45.1613C94.2843 48.0755 89.1889 51.0546 84.0857 54.0183C83.6517 54.2718 82.9844 54.3847 82.9551 54.9814C82.9226 55.6122 83.61 55.7189 84.0362 55.9678C89.1827 58.9593 94.3245 61.9616 99.5002 64.9036C100.495 65.4678 100.898 66.1527 100.88 67.2859C100.824 69.8986 100.83 72.5129 100.88 75.1256C100.898 76.197 100.504 76.8494 99.5481 77.3642C97.2056 78.6267 94.8965 79.9527 92.6208 81.342C91.6493 81.9357 90.8662 81.9388 89.887 81.3652C84.8857 78.4278 79.8474 75.5569 74.8246 72.6721C74.3427 72.3954 73.8484 71.7816 73.3017 72.0707C72.6499 72.4139 72.9758 73.2086 72.9727 73.7976C72.9495 79.4435 72.9171 85.0833 72.9866 90.7339C73.0036 92.1778 72.5232 93.0528 71.249 93.7222C68.8889 94.9668 66.5906 96.3288 64.3078 97.6908C63.5803 98.1237 62.9856 98.0881 62.2798 97.6707C59.9491 96.287 57.6014 94.908 55.2166 93.6094C54.1663 93.0374 53.7817 92.2984 53.7925 91.1033C53.8435 85.2487 53.8172 79.3941 53.8111 73.5394C53.8111 71.5915 53.74 71.5559 52.0719 72.5144C46.9116 75.4843 41.7435 78.4402 36.6017 81.4425C35.7831 81.9202 35.1113 81.979 34.2849 81.4889C31.8631 80.046 29.4212 78.6355 26.9591 77.2575C26.1096 76.7814 25.878 76.098 25.8872 75.1828C25.9197 72.516 25.9382 69.8492 25.8795 67.1854C25.8548 66.046 26.2888 65.3689 27.2696 64.8093C32.4392 61.8595 37.5794 58.8541 42.7289 55.8657C44.2102 55.0077 44.2102 55 42.7737 54.1652C37.6227 51.1783 32.484 48.1698 27.3098 45.2278C26.2626 44.6326 25.8486 43.9045 25.878 42.7156C25.9428 40.1029 25.9258 37.4886 25.878 34.8744C25.8625 33.888 26.1467 33.1923 27.0441 32.6914C29.4598 31.3418 31.8631 29.9659 34.234 28.5405C35.1221 28.0056 35.8295 28.1184 36.6867 28.6209C41.7837 31.5969 46.9054 34.5281 52.0209 37.4701C53.7647 38.4719 53.8002 38.4487 53.8049 36.3585C53.8162 33.484 53.8198 30.6095 53.8157 27.735ZM27.977 76.5402C30.1038 77.777 32.0268 78.8128 33.8555 79.9939C34.9831 80.7205 35.8634 80.6278 37.0018 79.9645C45.5287 74.9896 54.0793 70.0537 62.6536 65.1571C64.0776 64.3377 64.1981 64.4305 64.2398 66.0244C64.2491 66.4434 64.2398 66.8623 64.2398 67.2797C64.2398 76.4304 64.2553 85.5795 64.2244 94.7287C64.2244 96.0134 64.5039 96.3875 65.6994 95.6455C67.1636 94.7364 68.634 93.8397 70.1786 93.0575C71.3633 92.4545 71.734 91.6213 71.7231 90.3087C71.6722 80.8457 71.6876 71.3828 71.7139 61.9183C71.7139 61.0649 71.2721 59.8853 72.0676 59.4277C72.863 58.9701 73.6677 59.9162 74.4106 60.3429C82.3393 64.8943 90.2561 69.4642 98.1611 74.0527C99.2114 74.6556 99.6439 74.5752 99.6145 73.2642C99.5666 71.5405 99.5388 69.8105 99.6253 68.0898C99.6902 66.7711 99.2114 65.9981 98.0561 65.3318C89.4406 60.4047 80.8607 55.4159 72.2745 50.4393C70.954 49.6756 70.9586 49.5117 72.2745 48.7465C77.0214 45.9977 81.7704 43.2536 86.5214 40.5141C90.1439 38.425 93.7669 36.34 97.3904 34.2591C98.2213 33.7829 98.7573 33.4072 97.4908 32.7486C95.9632 31.9556 94.4279 31.1408 93.0116 30.1591C91.742 29.2748 90.7149 29.4062 89.4391 30.1514C81.2314 34.9491 73.001 39.7071 64.748 44.4255C64.0931 44.8027 63.4135 45.6622 62.6876 45.2665C61.9338 44.8614 62.3215 43.8318 62.32 43.082C62.2973 33.8277 62.2973 24.5735 62.32 15.3192C62.32 14.118 62.1655 13.5939 60.8804 14.4194C59.3865 15.3807 57.8451 16.2661 56.2622 17.0724C55.1811 17.6274 54.8258 18.3988 54.8397 19.583C54.8891 24.0262 54.8583 28.4709 54.8567 32.9156C54.8567 38.3523 54.8541 43.7901 54.849 49.2288C54.849 50.9418 54.6297 51.0716 53.2195 50.2863C52.3082 49.7777 51.4108 49.2412 50.5073 48.7187C43.1336 44.4579 35.76 40.1992 28.3863 35.9426C27.1074 35.2052 26.9607 35.2995 26.9422 36.8517C26.9221 38.3667 27.0688 39.8988 26.9035 41.3969C26.7028 43.201 27.5214 44.1023 29.0057 44.9526C37.3601 49.705 45.6636 54.547 53.9748 59.3751C55.6738 60.363 55.6583 60.5454 53.9362 61.5395C48.1905 64.8551 42.4422 68.1671 36.6913 71.4755C33.8648 73.1096 31.0445 74.7561 27.977 76.5402Z" fill="black"/>
</g>
<defs>
<clipPath id="clip0_19_1405">
<rect width="75" height="86" fill="white" transform="matrix(-1 0 0 -1 100.88 98)"/>
</clipPath>
</defs>
</svg>
