<svg width="132" height="107" viewBox="0 0 132 107" fill="none" xmlns="http://www.w3.org/2000/svg">
<rect opacity="0.11" x="12.9099" width="107" height="107" rx="53.5" fill="#707070"/>
<g clip-path="url(#clip0_19_1285)">
<path d="M65.6124 52.4965C65.6124 39.5707 65.6194 26.645 65.6334 13.7192C65.6334 13.1142 65.2201 11.993 66.0888 11.9976C66.8197 11.9976 66.5395 13.1493 66.5395 13.7917C66.555 39.5933 66.555 65.3942 66.5395 91.1943C66.5395 91.8366 66.8197 92.9836 66.0888 92.9883C65.2201 92.9883 65.6358 91.8717 65.6334 91.269C65.6054 78.3448 65.5984 65.4206 65.6124 52.4965Z" fill="black"/>
<path d="M64.5032 91.3718C64.2907 91.839 64.9703 92.9579 64.0712 92.9696C63.3286 92.9696 63.6322 91.8273 63.6042 91.1849C63.1076 82.4671 62.6289 73.7547 62.168 65.0477C61.9509 61.0111 61.7501 56.9746 61.5376 52.938L60.0944 25.6071C59.8874 21.6748 59.6819 17.7395 59.4779 13.801C59.4663 13.5549 59.4709 13.3083 59.4919 13.0629C59.52 12.7662 59.5737 12.4018 59.945 12.4251C60.3163 12.4485 60.3443 12.8199 60.3653 13.1143C60.4727 14.6396 60.5825 16.1627 60.6642 17.6904C61.2495 28.7162 61.8302 39.7428 62.4062 50.7702C62.7495 57.5165 63.0297 64.2651 63.3777 71.0091C63.7256 77.7531 64.1202 84.497 64.5032 91.3718Z" fill="black"/>
<path d="M72.7463 12.2733C72.7463 14.3126 72.821 16.2024 72.7323 18.0828C72.5104 22.7104 72.1998 27.3333 71.95 31.9585C71.4674 40.8679 70.9926 49.7766 70.5255 58.6844C70.2967 63.0153 70.0787 67.347 69.8717 71.6795C69.5518 78.2202 69.2529 84.7773 68.8956 91.3227C68.8629 91.9231 69.0941 93.035 68.2581 92.9999C67.6603 92.9719 68.0012 91.888 68.0246 91.3017C68.4776 82.1914 68.9773 73.0811 69.4443 63.9848C69.7759 57.5351 70.0632 51.0855 70.3994 44.6359C70.8525 35.9258 71.3195 27.2149 71.8005 18.5033C71.8963 16.7817 71.7819 15.0484 72.1018 13.3385C72.1788 13.0161 72.0854 12.6307 72.7463 12.2733Z" fill="black"/>
<path d="M62.3642 92.0212C62.3642 92.3552 62.4669 92.8178 62.0069 92.8598C61.5469 92.9018 61.5399 92.43 61.5048 92.1006C61.1102 88.5733 60.7132 85.046 60.3372 81.5163C59.5884 74.457 58.8459 67.3977 58.1095 60.3383C57.3731 53.279 56.6337 46.2189 55.8911 39.158C55.1501 32.0987 54.409 25.0394 53.668 17.9801C53.5536 16.9008 53.4345 15.824 53.3294 14.7447C53.2967 14.4037 53.2453 13.9458 53.6914 13.9038C54.1374 13.8617 54.1584 14.3383 54.1864 14.663C54.4806 17.2115 54.7795 19.7577 55.0458 22.3063C55.8794 30.2977 56.6804 38.2937 57.5234 46.2851C58.2636 53.3444 59.0389 60.3991 59.7815 67.4607C60.6221 75.4498 61.4527 83.4411 62.2731 91.4349C62.2895 91.6311 62.3315 91.825 62.3642 92.0212Z" fill="black"/>
<path d="M78.8132 13.8104C79.2359 14.7121 79.0467 15.5413 78.9674 16.3285C78.0099 25.593 77.0377 34.8591 76.0507 44.1267C75.1167 52.9497 74.1499 61.768 73.2158 70.591C72.4826 77.5008 71.7774 84.4153 71.0581 91.3274C71.0617 91.3764 71.0617 91.4256 71.0581 91.4746C70.946 91.9605 71.1772 92.8318 70.4837 92.7594C69.7901 92.687 70.1264 91.853 70.1778 91.3578C71.5065 78.7108 72.8726 66.0685 74.1989 53.4215C75.53 40.7278 76.8423 28.031 78.136 15.3311C78.1874 14.8195 78.1594 14.2635 78.8132 13.8104Z" fill="black"/>
<path d="M84.7724 16.2047C85.2535 16.9242 84.9663 17.66 84.8588 18.3375C81.0556 42.4556 77.2361 66.5699 73.4002 90.6803C73.2927 91.3554 73.3745 92.6239 72.6646 92.5001C71.8846 92.3646 72.4544 91.2199 72.5548 90.5729C76.3596 66.3067 80.1885 42.0453 84.0415 17.7885C84.1256 17.2466 84.0509 16.5925 84.7724 16.2047Z" fill="black"/>
<path d="M60.0827 91.7339C60.0406 92.0352 60.1808 92.5468 59.6904 92.5094C59.2 92.4721 59.2233 91.9441 59.1696 91.561C58.5781 87.8608 57.9896 84.1614 57.4042 80.4628C55.575 68.8748 53.7474 57.2868 51.9213 45.6988L47.5218 17.8002C47.4914 17.6063 47.4354 17.4124 47.4191 17.2186C47.391 16.8798 47.3023 16.4337 47.7483 16.3613C48.2387 16.2842 48.2153 16.7701 48.2621 17.0854C48.6481 19.4214 49.0272 21.7574 49.3993 24.0933C52.7432 45.1732 56.0849 66.253 59.4242 87.3329C59.6553 88.7906 59.8632 90.2552 60.0827 91.7339Z" fill="black"/>
<path d="M90.2835 19.6316C90.7973 20.274 90.5357 20.8533 90.4166 21.4116C86.9092 37.9643 83.3971 54.5147 79.8803 71.0628C78.4979 77.5778 77.1272 84.0929 75.7144 90.6009C75.593 91.1662 75.6677 92.2688 74.9555 92.1193C74.1568 91.9534 74.7733 91.0097 74.8854 90.4724C79.4079 69.0437 83.9513 47.6197 88.5158 26.2004C88.8848 24.4624 89.2374 22.7221 89.6203 20.9888C89.7207 20.5286 89.7044 19.996 90.2835 19.6316Z" fill="black"/>
<path d="M57.7126 92.3576C56.7786 91.874 56.8253 91.1101 56.6898 90.4748C53.3552 74.7972 50.0284 59.1205 46.7093 43.4445C45.1844 36.2567 43.6269 29.0759 42.137 21.8835C41.9993 21.2294 41.4061 20.1221 42.1978 19.9516C42.8843 19.8068 42.8329 21.0892 42.9754 21.755C47.216 41.6201 51.4411 61.49 55.6507 81.3644C56.3045 84.4495 56.9599 87.5361 57.6169 90.6243C57.7243 91.1405 57.8878 91.6568 57.7126 92.3576Z" fill="black"/>
<path d="M95.652 25.0231C94.8838 27.9103 94.1131 30.8186 93.3355 33.7246C88.3056 52.4871 83.271 71.2481 78.2317 90.0076C78.0705 90.6079 78.1383 91.7409 77.2976 91.5307C76.7021 91.3835 77.2976 90.4141 77.4447 89.8464C83.1705 68.3554 88.9081 46.8738 94.6572 25.4015C94.6956 25.208 94.7479 25.0175 94.8137 24.8315C94.9421 24.5465 94.8931 24.0233 95.3788 24.1307C95.8645 24.2382 95.6637 24.6703 95.652 25.0231Z" fill="black"/>
<path d="M55.3189 90.8205C55.3189 91.1709 55.4006 91.4629 55.0714 91.5353C54.7421 91.6077 54.6347 91.3461 54.5413 91.1218C54.4122 90.8021 54.3038 90.4744 54.2167 90.1407C48.5205 68.8538 42.8312 47.5652 37.149 26.2751C36.9832 25.6491 36.4251 24.5558 37.0392 24.4227C37.9172 24.2311 37.7911 25.4599 37.9569 26.0742C43.3278 46.0188 48.6761 65.9704 54.0019 85.929C54.4479 87.5945 54.8986 89.2601 55.3189 90.8205Z" fill="black"/>
<path d="M79.9294 90.8369C79.5254 90.2575 79.864 89.809 80.0041 89.3722C86.2858 69.993 92.5798 50.6184 98.8863 31.2484C99.0801 30.6598 99.0965 29.4567 99.8204 29.6903C100.6 29.945 99.8834 30.9051 99.6943 31.4914C93.5045 50.6464 87.2922 69.7889 81.0573 88.919C80.8331 89.6035 80.8331 90.4888 79.9294 90.8369Z" fill="black"/>
<path d="M52.8577 90.8322C51.8303 90.6873 51.7812 90.0706 51.6224 89.5894C46.6252 74.2514 41.6341 58.9118 36.6493 43.5707C35.3214 39.4905 33.9981 35.4072 32.6795 31.3208C32.5745 30.9914 32.4811 30.6597 32.3993 30.3234C32.3363 30.0734 32.3526 29.7814 32.6025 29.6763C33.0018 29.5104 33.1092 29.8725 33.198 30.1435C33.4969 31.0312 33.7607 31.9328 34.0503 32.8228C39.8508 50.6479 45.6506 68.473 51.4496 86.298C51.9167 87.7393 52.3487 89.19 52.8577 90.8322Z" fill="black"/>
<path d="M82.5144 89.6899C83.3107 87.5665 83.9972 85.6883 84.7118 83.8219C90.6945 68.2176 96.6842 52.6171 102.681 37.0206C102.833 36.6211 102.849 35.7685 103.473 36.0465C104.096 36.3245 103.613 37.0089 103.428 37.4901C98.5944 50.1044 93.7567 62.7187 88.9151 75.3329C87.2805 79.6148 85.6342 83.8966 83.9739 88.1691C83.759 88.7158 83.731 89.4539 82.5144 89.6899Z" fill="black"/>
<path d="M49.6982 89.6455C48.6847 89.4563 48.6357 88.655 48.4068 88.0617C42.8024 73.4836 37.205 58.8931 31.6146 44.2901C30.7483 42.0336 29.8773 39.7817 29.0296 37.5158C28.8708 37.093 28.4388 36.474 29.0833 36.2404C29.6064 36.0512 29.6811 36.7706 29.8259 37.1444C33.4345 46.5335 37.0338 55.9249 40.6237 65.3186C43.4477 72.6847 46.2748 80.0485 49.105 87.41C49.3642 88.0874 49.7636 88.7321 49.6982 89.6455Z" fill="black"/>
<path d="M85.9844 87.7791L105.742 43.3955C106.513 44.1921 106.097 44.727 105.873 45.2293C99.8701 58.7546 93.8523 72.2744 87.8198 85.7888C87.4625 86.5877 87.2804 87.5829 85.9844 87.7791Z" fill="black"/>
<path d="M45.6608 87.9823C39.0554 73.4058 32.5473 58.7849 26.1365 44.1196L26.8837 43.7856L46.3987 87.6482L45.6608 87.9823Z" fill="black"/>
<path d="M90.2205 85.1791C95.8038 74.2257 101.261 63.5176 106.875 52.4988C107.143 54.5147 91.8714 84.4526 90.2205 85.1791Z" fill="black"/>
<path d="M25.8795 53.1132C31.2504 63.6437 36.6213 74.1673 42.158 85.0413C40.4276 84.1466 25.4779 54.8488 25.8795 53.1132Z" fill="black"/>
<path d="M104.449 66.9585C102.929 70.9787 100.729 74.6135 98.1438 78.0334L97.7351 77.7998L104.108 66.7599L104.449 66.9585Z" fill="black"/>
<path d="M34.1904 77.6877C31.6217 74.5317 29.7068 71.0114 28.2053 67.2458L28.5159 67.0683C30.521 70.5349 32.5223 74.01 34.5196 77.4938L34.1904 77.6877Z" fill="black"/>
</g>
<defs>
<clipPath id="clip0_19_1285">
<rect width="81" height="81" fill="white" transform="translate(25.8796 12)"/>
</clipPath>
</defs>
</svg>
