<svg width="126" height="107" viewBox="0 0 126 107" fill="none" xmlns="http://www.w3.org/2000/svg">
<rect opacity="0.11" x="9.90991" width="107" height="107" rx="53.5" fill="#707070"/>
<path d="M62.4076 25.0002C52.727 25.0002 43.0472 25.0002 33.3685 25.0002C31.5658 25.0002 31.4996 25.1208 32.3952 26.7112C39.7467 39.77 47.1 52.8288 54.4553 65.8876C55.3707 67.5148 55.4708 67.5361 56.3848 65.9798C57.2749 64.4646 59.0041 63.0785 58.8433 61.4115C58.6882 59.7899 57.3411 58.2691 56.4638 56.7297C51.9051 48.7466 47.2068 40.8402 42.8145 32.7663C41.9273 31.1347 41.9019 31.1432 43.8089 31.1432C58.5894 31.1432 73.3714 31.1205 88.1533 31.1773C89.6019 31.1773 90.4707 30.7517 91.0702 29.455C91.5935 28.3399 92.2437 27.2702 92.8672 26.1948C93.3622 25.335 93.1493 24.9903 92.1619 25.0002C89.6837 25.0243 87.204 25.0002 84.7244 25.0002H62.4076Z" fill="black"/>
<path d="M55.5527 79.0844C53.5145 75.5532 51.6033 72.2448 49.6964 68.9307C43.8795 58.7972 38.0683 48.6596 32.2627 38.5177C31.8085 37.7232 31.25 37.3302 30.3204 37.3614C28.9382 37.4097 27.5531 37.4125 26.1722 37.3614C24.9789 37.316 24.6968 37.6764 25.3259 38.7503C26.7364 41.1395 28.1144 43.5555 29.5038 45.9603C37.7467 60.2259 45.9877 74.4911 54.2268 88.7558C55.5725 91.0839 55.6035 91.0896 56.9068 88.8139C64.3852 75.7135 71.857 62.6093 79.3223 49.5014C80.0275 48.2529 79.9344 48.0826 78.4591 48.067C77.0754 48.0486 75.6903 48.1096 74.3108 48.0472C73.3136 48.0018 72.7593 48.4231 72.2868 49.28C67.0266 58.7381 61.7462 68.1858 56.4455 77.6231C56.2156 78.036 55.9533 78.4304 55.5527 79.0844Z" fill="black"/>
<path d="M75.7084 37.3728C68.1736 37.3728 60.6387 37.3728 53.1039 37.3728C52.6413 37.3728 52.0009 37.1586 51.7611 37.5813C51.4635 38.1048 52.0587 38.5276 52.3352 38.9433C54.7923 42.6391 54.7979 42.632 59.2466 42.632C68.8802 42.632 78.5134 42.632 88.1461 42.632C89.8387 42.632 89.8627 42.6504 89.0404 44.1188C81.6118 57.4093 74.1663 70.6932 66.7039 83.9705C66.0522 85.1267 65.9746 86.0304 66.7476 87.1129C67.4284 88.0965 68.0411 89.1261 68.5812 90.1944C69.1821 91.3407 69.6151 91.1747 70.1835 90.166C72.0369 86.8675 73.927 83.5902 75.8072 80.3088C83.6006 66.7279 91.3874 53.1432 99.1677 39.5548C99.5119 38.9547 100.283 38.2978 99.8969 37.6551C99.5104 37.0124 98.5725 37.387 97.8856 37.3841C90.4937 37.3643 83.1013 37.3605 75.7084 37.3728Z" fill="black"/>
</svg>
