<svg width="83" height="82" viewBox="0 0 83 82" fill="none" xmlns="http://www.w3.org/2000/svg">
<path d="M77.5887 40.9986C78.0481 23.1054 63.9795 7.20853 46.1019 5.01045C29.0115 2.91037 12.4639 12.9516 7.07883 28.9845C6.80519 29.7962 6.01059 30.9779 7.28516 31.4122C8.55974 31.8465 8.61534 30.4192 8.9285 29.6178C14.1146 16.3621 23.6834 8.60518 37.872 6.92189C55.9868 4.77061 72.8313 17.6519 75.3717 35.8405C77.334 49.8801 72.1889 61.1118 60.7558 69.477C60.1573 69.9158 59.509 70.2843 58.9105 70.7231C58.4218 71.0814 58.1642 71.5713 58.5974 72.1197C59.0305 72.6681 59.572 72.4941 60.071 72.2016C61.8661 71.1522 63.5558 69.9322 65.1166 68.5586C72.2431 62.2701 76.4765 54.4503 77.5682 44.9911C77.7189 43.6837 77.5887 42.3324 77.5887 40.9986Z" fill="black"/>
<path d="M18.7783 41.0117C18.7783 53.618 28.7788 63.6447 41.3709 63.6461C53.963 63.6476 64.0264 53.6151 64.0352 41.0511C64.0352 28.4097 53.9849 18.4269 41.2626 18.4313C28.7598 18.4313 18.7871 28.4521 18.7783 41.0117ZM41.3402 20.3062C52.7133 20.2842 62.0743 29.5533 62.1416 40.9049C62.2089 52.3121 52.8567 61.7435 41.4485 61.7669C30.0885 61.7903 20.6997 52.4846 20.669 41.1638C20.6221 29.7054 29.9217 20.3281 41.3402 20.3062Z" fill="black"/>
<path d="M43.377 9.24718C25.3779 9.24718 11.8785 21.1399 9.84596 36.9695C9.03673 43.28 10.1035 49.2746 12.7917 55.0104C12.9186 55.2788 13.0654 55.5374 13.2307 55.784C13.5541 56.2725 13.9623 56.6454 14.5857 56.3222C15.2091 55.999 15.2047 55.4799 14.9486 54.9197C14.7643 54.5146 14.5521 54.1227 14.3633 53.7176C5.98272 35.5539 17.009 14.0762 37.4842 11.5301C50.104 9.96232 60.0841 14.9171 67.0086 25.7159C67.2135 26.0542 67.4419 26.3777 67.692 26.6841C67.9847 27.0146 68.3549 27.1111 68.7573 26.8727C69.1334 26.649 69.3426 26.295 69.2197 25.8768C69.0764 25.4561 68.8797 25.0555 68.6344 24.6849C62.3449 14.5968 53.1258 9.66983 43.377 9.24718Z" fill="black"/>
<path d="M0.379639 42.1012C1.02936 56.3002 7.53247 68.1563 20.5811 76.2642C20.9143 76.4763 21.2666 76.6569 21.6333 76.8039C22.1088 76.9881 22.5113 76.8287 22.782 76.3973C23.0747 75.9352 22.8932 75.5344 22.5332 75.2127C22.3051 75.0261 22.0602 74.8612 21.8015 74.7199C11.4206 68.4488 4.89552 59.4021 3.01366 47.4289C1.00595 34.7055 4.3892 23.4446 13.358 14.0074C16.86 10.2868 21.0951 7.33144 25.7965 5.32769C25.8872 5.2882 25.9794 5.25311 26.0657 5.20485C26.6379 4.89481 27.3286 4.57891 27.0052 3.77456C26.6525 2.89709 25.9311 3.10622 25.2492 3.40603C16.873 7.09239 10.3918 12.8935 5.80572 20.8093C2.19126 27.0657 0.525973 33.8719 0.379639 42.1012Z" fill="black"/>
<path d="M14.0298 41.0731C14.3751 56.3339 26.0541 67.0829 38.873 68.1066C39.168 68.1378 39.4649 68.1471 39.7612 68.1344C40.2529 68.1008 40.6319 67.8712 40.6861 67.3462C40.7402 66.8211 40.4095 66.4804 39.9544 66.3707C39.2359 66.1981 38.4911 66.1045 37.7594 65.9992C32.5795 65.2525 27.7597 62.9158 23.9666 59.3122C20.1734 55.7085 17.5944 51.0161 16.586 45.8837C15.5777 40.7514 16.1899 35.4327 18.3381 30.6633C20.4862 25.8938 24.0641 21.9092 28.5769 19.2606C33.4967 16.3693 38.8028 15.4158 44.4249 15.9393C45.1756 16.0095 46.0814 16.2552 46.2044 15.2183C46.3375 14.0951 45.3263 14.0893 44.5478 14.0059C29.2222 12.3446 15.9877 23.0322 14.3005 38.4187C14.2039 39.305 14.1205 40.1883 14.0298 41.0731Z" fill="black"/>
<path d="M5.11352 40.4048C4.76963 58.801 18.4534 75.1528 37.5705 77.19C42.9278 77.7618 48.2442 77.2397 53.3659 75.3838C53.8316 75.2189 54.2879 75.0285 54.7326 74.8135C55.1716 74.5985 55.4409 74.2416 55.2872 73.7313C55.1116 73.1463 54.6419 73 54.1078 73.1039C53.6739 73.2019 53.2467 73.3274 52.8288 73.4797C40.9421 77.3538 29.9187 75.6076 20.0499 67.9736C12.5883 62.2027 8.42799 54.4049 7.25732 45.0261C6.91782 42.3133 6.86514 39.615 7.25732 36.9022C7.29195 36.6076 7.30613 36.311 7.29975 36.0145C7.29975 35.3915 7.23976 34.748 6.44955 34.6983C5.76617 34.6529 5.57154 35.213 5.43545 35.7688C5.00377 37.4667 5.17205 39.207 5.11352 40.4048Z" fill="black"/>
<path d="M66.6312 40.8742C66.618 53.4265 57.7794 63.8874 45.6746 65.9305C45.5766 65.948 45.4756 65.948 45.3819 65.9714C44.6737 66.1499 43.7269 66.2084 43.9493 67.2511C44.1352 68.1286 44.9371 68.0203 45.6629 67.9107C48.9306 67.4163 52.0328 66.4029 54.8586 64.7064C63.7059 59.4006 68.5072 51.4873 68.6272 41.2486C68.7647 29.4831 61.7758 19.8236 51.2368 15.6366C50.5344 15.3572 49.7149 14.977 49.3505 15.97C48.9862 16.963 49.9095 17.1912 50.5783 17.4676C58.3984 20.7084 63.5186 26.3695 65.7971 34.5271C66.4014 36.6726 66.7365 38.8779 66.6312 40.8742Z" fill="black"/>
<path d="M42.278 70.8195C32.1166 70.6733 24.4735 67.1765 18.4562 60.1436C17.9338 59.5308 17.3675 58.3111 16.368 59.1125C15.3437 59.9388 16.4354 60.6876 16.9534 61.3238C28.0748 74.9246 48.5236 76.6927 61.9454 65.2724C65.674 62.1003 68.4719 58.2877 70.4942 53.8652C70.6112 53.6464 70.7091 53.4179 70.7869 53.1823C70.9903 52.432 71.8113 51.5034 70.6816 50.9886C69.5197 50.4621 69.3382 51.6701 69.0221 52.3721C68.4529 53.6356 67.9144 54.9094 67.1827 56.0896C61.2401 65.6746 52.6209 70.5285 42.278 70.8195Z" fill="black"/>
<path d="M42.0982 0.016058C38.0901 0.147678 34.8444 0.429935 31.6791 1.29864C30.9738 1.49314 29.8397 1.51654 30.0885 2.62655C30.3285 3.69853 31.3177 3.34754 32.0801 3.17497C38.6651 1.69058 45.2326 1.64816 51.7401 3.49963C62.6216 6.59419 70.7051 13.2016 76.0682 23.1463C76.1619 23.3203 76.238 23.5046 76.3375 23.6742C76.7048 24.3002 77.0092 25.2171 77.9574 24.698C78.8823 24.1934 78.3496 23.3993 78.013 22.7573C71.5968 10.5263 61.5914 3.15937 47.9969 0.656614C47.2712 0.518673 46.5384 0.421026 45.8019 0.364122C44.3166 0.248589 42.8532 -0.0775394 42.0982 0.016058Z" fill="black"/>
<path d="M41.3254 79.8663C36.6618 80.0696 32.1898 79.119 27.8231 77.5644C27.4563 77.4208 27.0744 77.3193 26.6847 77.2617C26.4852 77.2317 26.2815 77.2743 26.1107 77.3816C25.94 77.489 25.8134 77.654 25.754 77.8466C25.6764 78.0321 25.6685 78.2393 25.7317 78.4301C25.7949 78.6208 25.9249 78.7824 26.0979 78.885C26.3832 79.0797 26.6932 79.2356 27.0198 79.3486C41.3913 84.3794 54.6433 82.2355 66.7906 73.1141C68.9329 71.5054 70.7884 69.5808 72.5313 67.5568C72.9995 67.0142 73.6507 66.3064 72.7991 65.6556C72.0674 65.094 71.5347 65.7726 71.0782 66.3005C64.297 74.1174 55.7277 78.5559 45.4755 79.8063C45.2816 79.835 45.0861 79.8517 44.8901 79.8561C43.6946 79.8692 42.5122 79.8663 41.3254 79.8663Z" fill="black"/>
<path d="M80.3192 40.3916C80.4026 47.8267 78.7095 54.1006 75.4521 59.9695C75.2356 60.3585 75.0131 60.7431 74.8009 61.1395C74.4483 61.7917 73.9083 62.5654 74.8009 63.0801C75.7141 63.6081 76.1179 62.6941 76.4691 62.0857C82.5625 51.7373 83.942 40.7923 80.6075 29.2506C80.5292 28.9649 80.4314 28.6849 80.3148 28.4126C80.0895 27.9168 79.7295 27.5819 79.1441 27.7706C78.5588 27.9592 78.4578 28.4477 78.55 28.9742C78.6334 29.4597 78.7725 29.9365 78.9027 30.4132C79.8524 33.907 80.486 37.4476 80.3192 40.3916Z" fill="black"/>
<path d="M73.2309 40.9181C73.1898 37.5715 72.6387 34.2506 71.5963 31.0699C71.3622 30.3592 71.1149 29.4905 70.1242 29.8283C69.1335 30.1661 69.5023 31.0261 69.7364 31.7163C71.289 36.3055 71.4295 41.0015 70.8398 45.7559C70.803 46.0499 70.7844 46.3459 70.7841 46.6422C70.7841 47.1745 70.9378 47.6659 71.5261 47.7683C72.2124 47.8896 72.5167 47.4187 72.6309 46.8396C73.0111 44.8882 73.212 42.9061 73.2309 40.9181Z" fill="black"/>
<path d="M41.4412 59.1609C49.8262 59.1492 57.3097 53.1005 59.0833 44.9019C59.1402 44.7109 59.1794 44.5151 59.2003 44.3169C59.2194 43.5652 59.6218 42.54 58.5536 42.3104C57.3829 42.0574 57.4648 43.1791 57.3009 43.9001C55.7556 50.7181 51.6583 55.1026 44.8362 56.7595C36.5287 58.7777 27.756 53.3432 25.7395 45.0452C25.542 44.2306 25.5698 42.9115 24.3449 43.1981C22.9884 43.5155 23.6864 44.7527 23.8928 45.5761C25.8932 53.5246 33.2157 59.1711 41.4412 59.1609Z" fill="black"/>
<path d="M41.4061 22.9167C32.9436 22.9167 25.4293 28.9493 23.6996 37.2181C23.5211 38.0692 22.8216 39.4366 24.2323 39.7291C25.6108 40.0143 25.3693 38.5255 25.5566 37.7153C27.2834 30.2699 33.3899 25.2947 40.7066 24.9685C49.1604 24.5898 55.7132 30.7672 57.0961 37.2737C57.1748 37.66 57.3006 38.0352 57.4707 38.391C57.6873 38.8297 58.0692 39.052 58.5741 38.8911C58.7683 38.8377 58.9371 38.7167 59.0501 38.5499C59.163 38.3832 59.2127 38.1816 59.1901 37.9815C59.1489 37.4904 59.0642 37.0039 58.937 36.5278C56.9146 28.6042 49.5862 22.9167 41.4061 22.9167Z" fill="black"/>
<path d="M48.3642 41.1024C48.3408 40.5013 47.9588 40.2176 47.4218 40.162C46.8364 40.102 46.2394 40.1064 45.6467 40.105C42.085 40.105 42.085 40.105 42.0806 36.6097C42.0806 36.171 42.0806 35.722 42.0674 35.2774C42.0455 34.7143 41.9679 34.0884 41.2728 34.0592C40.5411 34.0285 40.2602 34.6193 40.2324 35.2584C40.1855 36.3903 40.1548 37.5281 40.2046 38.6601C40.2543 39.7627 39.7817 40.1635 38.712 40.1137C37.6423 40.064 36.5404 40.1006 35.4546 40.1313C34.9263 40.1459 34.4302 40.3404 34.4068 40.9517C34.3805 41.6245 34.8604 41.9199 35.4619 41.9403C36.596 41.9813 37.733 42.0003 38.8671 41.9696C39.8065 41.9433 40.2251 42.3235 40.1973 43.277C40.1665 44.4104 40.1826 45.5468 40.2163 46.6802C40.2368 47.3617 40.4372 48.0593 41.2684 48.0081C42.0396 47.9584 42.0616 47.2418 42.0703 46.6407C42.0879 45.6535 42.142 44.662 42.0703 43.6821C41.9723 42.4171 42.4069 41.8555 43.74 41.9564C44.8682 42.0442 46.0097 41.9754 47.1438 41.9564C47.7159 41.9389 48.2149 41.7663 48.3642 41.1024Z" fill="black"/>
</svg>
